<?xml version="1.0" encoding="UTF-8" standalone="no"?>
<!DOCTYPE svg PUBLIC "-//W3C//DTD SVG 1.1//EN" "http://www.w3.org/Graphics/SVG/1.1/DTD/svg11.dtd">
<svg width="100%" height="100%" viewBox="0 0 953 305" version="1.1" xmlns="http://www.w3.org/2000/svg" xmlns:xlink="http://www.w3.org/1999/xlink" xml:space="preserve" xmlns:serif="http://www.serif.com/" style="fill-rule:evenodd;clip-rule:evenodd;stroke-linejoin:round;stroke-miterlimit:2;">
    <g transform="matrix(1,0,0,1,-2383.32,-174.69)">
        <g transform="matrix(1.36169,0,0,1,-510.078,-55)">
            <g transform="matrix(0.734384,0,0,1,1866.48,-0.0473129)">
                <g transform="matrix(1,0,0,1,7,0)">
                    <path d="M344.844,520.047L344.844,290.192L374.132,290.192L374.132,373.306L452.232,373.306L452.232,290.192L481.784,290.192L481.784,477L452.232,477L452.232,398.9L374.132,398.9L374.132,505.737C374.132,505.737 1010.33,505.737 1010.33,505.737L1010.33,520.047C1010.33,527.951 1003.92,534.358 996.016,534.358L359.155,534.358C351.251,534.358 344.844,527.951 344.844,520.047Z" style="fill:url(#_Linear1);"/>
                    <clipPath id="_clip2">
                        <path d="M344.844,520.047L344.844,290.192L374.132,290.192L374.132,373.306L452.232,373.306L452.232,290.192L481.784,290.192L481.784,477L452.232,477L452.232,398.9L374.132,398.9L374.132,505.737C374.132,505.737 1010.33,505.737 1010.33,505.737L1010.33,520.047C1010.33,527.951 1003.92,534.358 996.016,534.358L359.155,534.358C351.251,534.358 344.844,527.951 344.844,520.047Z"/>
                    </clipPath>
                    <g clip-path="url(#_clip2)">
                        <g transform="matrix(1,0,0,1,-2038.48,55.0473)">
                            <rect x="2364" y="212" width="168" height="212.855"/>
                        </g>
                        <g transform="matrix(1,0,0,1.43124,-2038.48,-134.285)">
                            <rect x="2364" y="380" width="74" height="66" style="fill:url(#_Linear3);"/>
                        </g>
                    </g>
                </g>
                <path d="M547.161,345.047L547.219,414.203C547.219,430.034 548.539,440.676 551.177,446.129C553.816,451.582 559.972,454.309 569.647,454.309C579.146,454.309 587.853,452.55 595.768,449.032L599.726,447.448L599.726,345.074L628.222,345.074L628.222,477L599.726,477L599.726,468.821C586.885,476.208 575.012,479.902 564.106,479.902C545.988,479.902 533.851,475.065 527.694,465.39C521.538,455.54 518.459,438.39 518.459,413.939L518.459,346.763L518.459,345.047"/>
                <g transform="matrix(1,0,0,1,30,0)">
                    <path d="M800.518,296.261L869.12,296.261C887.589,296.261 901.398,300.043 910.545,307.607C919.692,314.994 924.265,326.868 924.265,343.227C924.265,353.957 922.506,362.4 918.988,368.557C915.646,374.713 910.281,379.814 902.893,383.86C920.131,390.544 928.751,404.528 928.751,425.813C928.751,459.938 909.577,477 871.231,477L800.518,477L800.518,296.261ZM869.12,398.108L829.806,398.108L829.806,451.67L869.648,451.67C879.322,451.67 886.534,449.647 891.283,445.602C896.209,441.556 898.671,434.608 898.671,424.757C898.671,414.907 895.857,408.046 890.228,404.177C884.599,400.131 877.563,398.108 869.12,398.108ZM867.537,321.591L829.806,321.591L829.806,373.306L868.592,373.306C885.83,373.306 894.45,364.423 894.45,346.657C894.45,329.946 885.479,321.591 867.537,321.591Z" style="fill-rule:nonzero;"/>
                </g>
                <g transform="matrix(1,0,0,1,30,0)">
                    <path d="M958.566,477L958.566,345.074L987.326,345.074L987.326,477L958.566,477ZM958.566,320.535L958.566,290.192L987.326,290.192L987.326,320.535L958.566,320.535Z" style="fill-rule:nonzero;"/>
                </g>
                <g transform="matrix(1,0,0,1,30,0)">
                    <path d="M1050.91,477L1022.15,477L1022.15,345.074L1050.65,345.074L1050.65,353.253C1063.49,345.865 1075.63,342.171 1087.06,342.171C1104.65,342.171 1116.61,347.184 1122.95,357.211C1129.45,367.061 1132.71,383.42 1132.71,406.287L1132.71,477L1104.21,477L1104.21,407.079C1104.21,392.831 1102.63,382.717 1099.46,376.736C1096.47,370.755 1090.23,367.765 1080.73,367.765C1071.76,367.765 1063.14,369.524 1054.87,373.042L1050.91,374.625L1050.91,477Z" style="fill-rule:nonzero;"/>
                </g>
                <g transform="matrix(1,0,0,1,30,0)">
                    <path d="M1245.25,258.358L958.705,258.358L958.705,244.047C958.705,236.144 965.112,229.737 973.016,229.737L1259.56,229.737C1267.46,229.737 1273.87,236.144 1273.87,244.047L1273.87,477L1245.36,477L1245.37,470.14C1232.53,476.648 1220.75,479.902 1210.02,479.902C1192.78,479.902 1180.11,474.713 1172.02,464.335C1164.11,453.957 1160.15,436.543 1160.15,412.092C1160.15,387.642 1164.55,369.876 1173.34,358.794C1182.31,347.712 1196.21,342.171 1215.03,342.171C1221.36,342.171 1231.39,343.315 1245.11,345.601L1245.25,258.358ZM1240.62,449.559L1245.11,447.712L1245.11,369.612C1234.56,367.853 1224.79,366.973 1215.82,366.973C1198.06,366.973 1189.17,381.749 1189.17,411.301C1189.17,427.484 1191.2,438.741 1195.24,445.074C1199.46,451.23 1206.06,454.309 1215.03,454.309C1224,454.309 1232.53,452.726 1240.62,449.559Z" style="fill:rgb(140,140,140);"/>
                    <clipPath id="_clip4">
                        <path d="M1245.25,258.358L958.705,258.358L958.705,244.047C958.705,236.144 965.112,229.737 973.016,229.737L1259.56,229.737C1267.46,229.737 1273.87,236.144 1273.87,244.047L1273.87,477L1245.36,477L1245.37,470.14C1232.53,476.648 1220.75,479.902 1210.02,479.902C1192.78,479.902 1180.11,474.713 1172.02,464.335C1164.11,453.957 1160.15,436.543 1160.15,412.092C1160.15,387.642 1164.55,369.876 1173.34,358.794C1182.31,347.712 1196.21,342.171 1215.03,342.171C1221.36,342.171 1231.39,343.315 1245.11,345.601L1245.25,258.358ZM1240.62,449.559L1245.11,447.712L1245.11,369.612C1234.56,367.853 1224.79,366.973 1215.82,366.973C1198.06,366.973 1189.17,381.749 1189.17,411.301C1189.17,427.484 1191.2,438.741 1195.24,445.074C1199.46,451.23 1206.06,454.309 1215.03,454.309C1224,454.309 1232.53,452.726 1240.62,449.559Z"/>
                    </clipPath>
                    <g clip-path="url(#_clip4)">
                        <g transform="matrix(2.01163,0,0,0.35,-4352.65,117.058)">
                            <rect x="2636.35" y="278" width="160.648" height="220" style="fill:url(#_Linear5);"/>
                        </g>
                    </g>
                </g>
            </g>
        </g>
        <g transform="matrix(1.36169,0,0,1,-510.078,-55)">
            <g transform="matrix(1.32021,0,0,1.79771,2336.95,318.755)">
                <path d="M85.218,22.754C89.401,24.846 92,29.052 92,33.729C92,40.495 86.495,46 79.73,46L56,46L56,55C56,56.314 55.145,57.474 53.889,57.867C52.638,58.256 51.27,57.785 50.526,56.702C50.477,56.627 44.86,48.71 38.081,49C34.03,49.142 30.853,50.797 29.011,56.078C25.647,65.724 32.765,76.182 42.27,76.783C55.186,77.601 60.673,71.184 66.506,61.399C67.156,60.309 68.987,60.894 69.951,61.723C70.915,62.549 71.255,63.892 70.801,65.077C65.448,79.001 53.75,88 41,88C22.804,88 8,71.85 8,52C8,32.15 22.804,16 41,16C48.79,16 56.223,18.707 62,23.472L62,16C62,14.96 62.539,13.995 63.424,13.448C64.309,12.899 65.41,12.853 66.342,13.316L85.218,22.754ZM74.435,29.076C74.435,27.419 73.092,26.076 71.435,26.076C69.778,26.076 68.435,27.419 68.435,29.076C68.435,30.733 69.778,32.076 71.435,32.076C73.092,32.076 74.435,30.733 74.435,29.076Z"/>
            </g>
        </g>
    </g>
    <defs>
        <linearGradient id="_Linear1" x1="0" y1="0" x2="1" y2="0" gradientUnits="userSpaceOnUse" gradientTransform="matrix(630,0,0,630,376.521,521.047)"><stop offset="0" style="stop-color:rgb(255,0,0);stop-opacity:1"/><stop offset="0.18" style="stop-color:rgb(255,222,0);stop-opacity:1"/><stop offset="0.37" style="stop-color:rgb(163,255,71);stop-opacity:1"/><stop offset="0.53" style="stop-color:rgb(0,255,197);stop-opacity:1"/><stop offset="0.69" style="stop-color:rgb(46,74,233);stop-opacity:1"/><stop offset="0.82" style="stop-color:rgb(240,72,168);stop-opacity:1"/><stop offset="1" style="stop-color:rgb(255,17,0);stop-opacity:1"/></linearGradient>
        <linearGradient id="_Linear3" x1="0" y1="0" x2="1" y2="0" gradientUnits="userSpaceOnUse" gradientTransform="matrix(4.3475e-15,66,-71,4.04133e-15,2398,380)"><stop offset="0" style="stop-color:black;stop-opacity:1"/><stop offset="1" style="stop-color:rgb(255,0,0);stop-opacity:1"/></linearGradient>
        <linearGradient id="_Linear5" x1="0" y1="0" x2="1" y2="0" gradientUnits="userSpaceOnUse" gradientTransform="matrix(103.896,30.8864,-5.37388,597.143,2675.03,357.114)"><stop offset="0" style="stop-color:black;stop-opacity:1"/><stop offset="1" style="stop-color:rgb(140,140,140);stop-opacity:1"/></linearGradient>
    </defs>
</svg>
